<?xml version="1.0" encoding="utf-8"?>
<!-- Generator: Adobe Illustrator 16.0.0, SVG Export Plug-In . SVG Version: 6.00 Build 0)  -->
<!DOCTYPE svg PUBLIC "-//W3C//DTD SVG 1.1//EN" "http://www.w3.org/Graphics/SVG/1.1/DTD/svg11.dtd">
<svg version="1.1" id="图层_1" xmlns="http://www.w3.org/2000/svg" xmlns:xlink="http://www.w3.org/1999/xlink" x="0px" y="0px"
	 width="652.651px" height="97.247px" viewBox="0 0 652.651 97.247" enable-background="new 0 0 652.651 97.247"
	 xml:space="preserve">
<g>
	<path fill="#231815" d="M42.768,70.079c0-3.727,0.604-7.242,1.814-10.543c1.209-3.302,2.958-6.18,5.247-8.631
		c2.288-2.452,5.066-4.397,8.337-5.836c3.269-1.438,6.996-2.158,11.181-2.158c2.746,0,5.262,0.245,7.552,0.735
		c2.288,0.491,4.512,1.194,6.669,2.109l-3.041,11.671c-1.373-0.522-2.878-0.98-4.512-1.373c-1.635-0.392-3.466-0.588-5.492-0.588
		c-4.315,0-7.537,1.341-9.661,4.021c-2.125,2.683-3.188,6.212-3.188,10.593c0,4.643,0.996,8.238,2.991,10.789
		c1.994,2.549,5.476,3.824,10.445,3.824c1.766,0,3.661-0.162,5.688-0.49c2.026-0.326,3.89-0.85,5.591-1.568l2.06,11.965
		c-1.701,0.721-3.825,1.34-6.375,1.863c-2.55,0.523-5.362,0.785-8.435,0.785c-4.708,0-8.763-0.703-12.162-2.109
		c-3.401-1.404-6.196-3.318-8.386-5.738c-2.191-2.418-3.793-5.279-4.806-8.58C43.273,77.517,42.768,73.938,42.768,70.079z"/>
	<path fill="#231815" d="M110.344,42.911c4.315,0,7.911,0.49,10.789,1.472c2.877,0.98,5.182,2.388,6.915,4.217
		c1.731,1.832,2.958,4.056,3.678,6.67c0.719,2.616,1.079,5.527,1.079,8.728v30.406c-2.094,0.457-5.002,0.996-8.729,1.617
		c-3.727,0.621-8.238,0.932-13.535,0.932c-3.334,0-6.36-0.295-9.072-0.883c-2.714-0.588-5.051-1.553-7.013-2.893
		s-3.466-3.09-4.512-5.248c-1.046-2.158-1.569-4.805-1.569-7.943c0-3.008,0.604-5.557,1.814-7.65
		c1.209-2.092,2.828-3.76,4.855-5.002c2.026-1.242,4.348-2.141,6.964-2.697c2.614-0.555,5.328-0.834,8.141-0.834
		c1.896,0,3.58,0.082,5.051,0.246c1.471,0.162,2.664,0.377,3.58,0.637v-1.373c0-2.484-0.752-4.478-2.256-5.983
		c-1.505-1.504-4.12-2.256-7.846-2.256c-2.486,0-4.938,0.181-7.356,0.539c-2.42,0.36-4.512,0.867-6.277,1.521l-1.863-11.77
		c0.849-0.261,1.913-0.539,3.188-0.834c1.275-0.294,2.664-0.555,4.168-0.784c1.503-0.229,3.089-0.425,4.757-0.589
		C106.96,42.994,108.643,42.911,110.344,42.911z M111.521,85.673c1.438,0,2.811-0.031,4.119-0.098
		c1.307-0.064,2.354-0.162,3.139-0.295V74.198c-0.588-0.131-1.471-0.26-2.648-0.393c-1.177-0.131-2.256-0.195-3.236-0.195
		c-1.373,0-2.665,0.082-3.874,0.244c-1.211,0.164-2.273,0.475-3.188,0.932c-0.916,0.459-1.635,1.08-2.158,1.863
		c-0.524,0.785-0.785,1.766-0.785,2.943c0,2.289,0.768,3.873,2.305,4.756C106.731,85.231,108.839,85.673,111.521,85.673z"/>
	<path fill="#231815" d="M145.554,31.436l14.614-2.354v15.202h17.556v12.162h-17.556v18.145c0,3.074,0.54,5.525,1.619,7.355
		c1.079,1.832,3.252,2.746,6.522,2.746c1.569,0,3.188-0.146,4.855-0.441s3.188-0.701,4.561-1.227l2.06,11.379
		c-1.765,0.719-3.727,1.34-5.884,1.863c-2.158,0.521-4.806,0.783-7.945,0.783c-3.989,0-7.292-0.539-9.906-1.617
		c-2.616-1.08-4.708-2.582-6.277-4.512c-1.569-1.928-2.665-4.268-3.286-7.014c-0.623-2.746-0.932-5.785-0.932-9.121V31.436z"/>
	<path fill="#231815" d="M185.178,70.079c0-3.727,0.604-7.242,1.814-10.543c1.209-3.302,2.958-6.18,5.247-8.631
		c2.288-2.452,5.066-4.397,8.337-5.836c3.269-1.438,6.996-2.158,11.181-2.158c2.746,0,5.262,0.245,7.552,0.735
		c2.288,0.491,4.512,1.194,6.669,2.109l-3.041,11.671c-1.373-0.522-2.878-0.98-4.512-1.373c-1.635-0.392-3.466-0.588-5.492-0.588
		c-4.315,0-7.537,1.341-9.661,4.021c-2.125,2.683-3.188,6.212-3.188,10.593c0,4.643,0.996,8.238,2.991,10.789
		c1.994,2.549,5.476,3.824,10.445,3.824c1.766,0,3.661-0.162,5.688-0.49c2.026-0.326,3.89-0.85,5.591-1.568l2.06,11.965
		c-1.701,0.721-3.825,1.34-6.375,1.863c-2.55,0.523-5.362,0.785-8.435,0.785c-4.708,0-8.763-0.703-12.162-2.109
		c-3.401-1.404-6.196-3.318-8.386-5.738c-2.191-2.418-3.793-5.279-4.806-8.58C185.684,77.517,185.178,73.938,185.178,70.079z"/>
	<path fill="#231815" d="M236.669,95.874V22.118l14.614-2.354V44.48c0.98-0.326,2.239-0.638,3.776-0.932
		c1.536-0.294,3.023-0.441,4.462-0.441c4.184,0,7.666,0.573,10.446,1.717c2.778,1.145,5.002,2.763,6.669,4.854
		c1.667,2.094,2.845,4.577,3.531,7.454c0.687,2.878,1.03,6.082,1.03,9.611v29.131h-14.614V68.509c0-4.707-0.605-8.041-1.814-10.003
		c-1.211-1.962-3.45-2.942-6.719-2.942c-1.309,0-2.535,0.115-3.678,0.344c-1.145,0.229-2.175,0.475-3.089,0.735v39.232H236.669z"/>
	<path fill="#231815" d="M291.985,70.472c0-4.576,0.702-8.582,2.109-12.015c1.405-3.433,3.252-6.293,5.541-8.582
		c2.288-2.288,4.919-4.021,7.896-5.198c2.975-1.177,6.032-1.766,9.17-1.766c7.322,0,13.109,2.24,17.36,6.719
		c4.25,4.479,6.375,11.067,6.375,19.762c0,0.852-0.034,1.783-0.098,2.795c-0.066,1.016-0.132,1.914-0.196,2.697h-33.151
		c0.327,3.01,1.732,5.395,4.218,7.16c2.484,1.766,5.819,2.648,10.004,2.648c2.68,0,5.312-0.244,7.896-0.736
		c2.582-0.49,4.691-1.094,6.326-1.814l1.961,11.869c-0.785,0.393-1.832,0.783-3.139,1.176c-1.309,0.393-2.763,0.736-4.364,1.031
		c-1.603,0.293-3.319,0.539-5.149,0.734c-1.831,0.197-3.663,0.295-5.492,0.295c-4.644,0-8.68-0.688-12.113-2.061
		c-3.433-1.373-6.277-3.252-8.533-5.639s-3.923-5.215-5.002-8.484C292.524,77.794,291.985,74.265,291.985,70.472z M326.313,64.88
		c-0.066-1.24-0.279-2.451-0.638-3.629c-0.36-1.176-0.916-2.221-1.667-3.138c-0.752-0.915-1.701-1.667-2.844-2.256
		c-1.145-0.588-2.567-0.883-4.267-0.883c-1.635,0-3.041,0.279-4.217,0.834c-1.177,0.557-2.158,1.292-2.942,2.207
		c-0.785,0.916-1.39,1.978-1.814,3.187c-0.426,1.211-0.736,2.438-0.932,3.678H326.313z"/>
	<path fill="#231815" d="M382.806,57.23c-1.309-0.326-2.845-0.669-4.61-1.029c-1.765-0.358-3.662-0.539-5.688-0.539
		c-0.917,0-2.012,0.082-3.286,0.245s-2.24,0.343-2.894,0.539v39.428h-14.613V47.03c2.614-0.914,5.703-1.78,9.268-2.599
		c3.564-0.816,7.536-1.226,11.918-1.226c0.784,0,1.73,0.049,2.844,0.146c1.111,0.099,2.223,0.23,3.334,0.393
		c1.111,0.164,2.223,0.36,3.336,0.589c1.11,0.229,2.059,0.507,2.844,0.833L382.806,57.23z"/>
</g>
<g>
	<path fill="#888888" d="M403.632,91.362c3.661,0,6.685-0.604,9.072-1.814c2.386-1.209,3.58-3.252,3.58-6.131
		c0-1.373-0.213-2.549-0.638-3.531c-0.426-0.98-1.128-1.863-2.108-2.646c-0.981-0.785-2.272-1.537-3.874-2.256
		c-1.604-0.719-3.58-1.57-5.934-2.551c-1.897-0.785-3.695-1.584-5.395-2.402c-1.701-0.816-3.205-1.766-4.512-2.846
		c-1.309-1.078-2.354-2.369-3.139-3.873s-1.177-3.334-1.177-5.493c0-4.119,1.552-7.454,4.659-10.004
		c3.104-2.55,7.371-3.825,12.799-3.825c3.465,0,6.326,0.294,8.582,0.883c2.256,0.588,3.84,1.112,4.756,1.569l-1.471,5.688
		c-0.784-0.393-2.108-0.915-3.973-1.569c-1.863-0.653-4.594-0.98-8.189-0.98c-1.438,0-2.795,0.148-4.07,0.442
		c-1.274,0.294-2.402,0.754-3.383,1.376c-0.98,0.623-1.766,1.409-2.354,2.358c-0.589,0.95-0.882,2.112-0.882,3.488
		s0.26,2.556,0.784,3.539c0.522,0.984,1.29,1.852,2.305,2.605c1.013,0.754,2.256,1.455,3.728,2.105
		c1.471,0.65,3.153,1.367,5.051,2.148c1.961,0.781,3.84,1.578,5.639,2.393c1.799,0.813,3.385,1.793,4.758,2.936
		c1.373,1.145,2.484,2.518,3.334,4.119c0.85,1.604,1.275,3.613,1.275,6.033c0,4.576-1.717,8.041-5.149,10.396
		c-3.433,2.354-8.125,3.529-14.074,3.529c-4.447,0-7.847-0.377-10.2-1.127c-2.354-0.752-3.923-1.324-4.707-1.717l1.666-5.787
		c0.197,0.133,0.621,0.344,1.275,0.639c0.653,0.293,1.535,0.621,2.648,0.98c1.111,0.359,2.436,0.672,3.973,0.932
		C399.823,91.231,401.605,91.362,403.632,91.362z"/>
	<path fill="#888888" d="M441.196,45.167h20.205v5.395h-20.205v26.971c0,2.879,0.245,5.215,0.736,7.014
		c0.49,1.799,1.191,3.188,2.107,4.168s2.027,1.635,3.336,1.961c1.307,0.328,2.746,0.49,4.314,0.49c2.681,0,4.838-0.309,6.474-0.932
		c1.634-0.619,2.909-1.191,3.825-1.715l1.569,5.295c-0.917,0.59-2.519,1.26-4.806,2.012c-2.29,0.75-4.773,1.127-7.455,1.127
		c-3.138,0-5.771-0.408-7.895-1.227c-2.125-0.816-3.825-2.059-5.1-3.727c-1.275-1.666-2.176-3.742-2.697-6.229
		c-0.524-2.482-0.785-5.426-0.785-8.826V30.258l6.375-1.177V45.167z"/>
	<path fill="#888888" d="M512.106,94.108c-1.896,0.523-4.447,1.111-7.649,1.766c-3.204,0.652-7.128,0.98-11.77,0.98
		c-3.793,0-6.964-0.557-9.514-1.668s-4.61-2.68-6.179-4.707c-1.57-2.025-2.697-4.479-3.385-7.355
		c-0.686-2.877-1.029-6.049-1.029-9.514V45.167h6.375V71.55c0,3.598,0.261,6.637,0.785,9.121c0.522,2.486,1.373,4.496,2.55,6.033
		c1.177,1.535,2.697,2.646,4.561,3.334c1.864,0.686,4.135,1.029,6.816,1.029c3.007,0,5.623-0.162,7.847-0.49
		c2.223-0.326,3.629-0.621,4.217-0.883V45.167h6.375V94.108z"/>
	<path fill="#888888" d="M569.286,94.304c-1.897,0.654-4.316,1.275-7.258,1.863c-2.943,0.59-6.67,0.883-11.182,0.883
		c-3.727,0-7.11-0.605-10.15-1.814c-3.041-1.209-5.656-2.957-7.847-5.246c-2.191-2.289-3.892-5.066-5.101-8.338
		c-1.211-3.268-1.814-6.963-1.814-11.082c0-3.857,0.506-7.404,1.521-10.643c1.013-3.236,2.501-6.031,4.462-8.385
		c1.963-2.354,4.365-4.184,7.209-5.492c2.845-1.308,6.097-1.962,9.76-1.962c3.334,0,6.228,0.476,8.68,1.423
		c2.452,0.948,4.232,1.848,5.346,2.697V20.941l6.375-1.177V94.304z M562.911,54.386c-0.589-0.457-1.324-0.947-2.207-1.472
		c-0.883-0.522-1.912-1.013-3.09-1.471c-1.177-0.457-2.451-0.834-3.824-1.128c-1.374-0.294-2.813-0.441-4.316-0.441
		c-3.139,0-5.771,0.557-7.895,1.667c-2.126,1.113-3.843,2.6-5.15,4.463c-1.309,1.863-2.256,4.055-2.844,6.571
		c-0.588,2.518-0.883,5.184-0.883,7.994c0,6.67,1.668,11.787,5.002,15.35c3.335,3.564,7.748,5.346,13.24,5.346
		c3.139,0,5.672-0.148,7.602-0.441c1.928-0.295,3.384-0.605,4.365-0.932V54.386z"/>
	<path fill="#888888" d="M594,29.867c0,1.505-0.459,2.697-1.373,3.579c-0.916,0.883-2.027,1.324-3.335,1.324
		c-1.309,0-2.42-0.441-3.335-1.324c-0.916-0.882-1.373-2.074-1.373-3.579c0-1.504,0.457-2.697,1.373-3.58
		c0.915-0.883,2.026-1.324,3.335-1.324c1.308,0,2.419,0.441,3.335,1.324C593.542,27.169,594,28.363,594,29.867z M592.53,95.874
		h-6.376V45.167h6.376V95.874z"/>
	<path fill="#888888" d="M652.651,70.569c0,3.988-0.572,7.617-1.716,10.887c-1.145,3.27-2.746,6.049-4.806,8.336
		c-2.06,2.291-4.496,4.07-7.307,5.346c-2.813,1.275-5.919,1.912-9.318,1.912c-3.4,0-6.506-0.637-9.316-1.912
		c-2.813-1.275-5.248-3.055-7.308-5.346c-2.06-2.287-3.663-5.066-4.806-8.336c-1.145-3.27-1.717-6.898-1.717-10.887
		s0.572-7.617,1.717-10.887c1.143-3.269,2.746-6.064,4.806-8.386c2.06-2.32,4.495-4.119,7.308-5.395
		c2.811-1.274,5.916-1.912,9.316-1.912c3.399,0,6.506,0.638,9.318,1.912c2.811,1.275,5.247,3.074,7.307,5.395
		c2.06,2.322,3.661,5.117,4.806,8.386C652.079,62.952,652.651,66.581,652.651,70.569z M645.884,70.569
		c0-6.342-1.472-11.393-4.413-15.154c-2.943-3.759-6.932-5.639-11.967-5.639s-9.023,1.88-11.965,5.639
		c-2.943,3.761-4.414,8.812-4.414,15.154s1.471,11.377,4.414,15.104c2.941,3.727,6.93,5.592,11.965,5.592s9.023-1.865,11.967-5.592
		C644.413,81.946,645.884,76.911,645.884,70.569z"/>
</g>
<ellipse fill="#E50012" cx="19.047" cy="18.86" rx="19.047" ry="18.86"/>
</svg>
