<?xml version="1.0" encoding="utf-8"?>
<!-- Generator: Adobe Illustrator 16.0.0, SVG Export Plug-In . SVG Version: 6.00 Build 0)  -->
<!DOCTYPE svg PUBLIC "-//W3C//DTD SVG 1.1//EN" "http://www.w3.org/Graphics/SVG/1.1/DTD/svg11.dtd">
<svg version="1.1" id="图层_1" xmlns="http://www.w3.org/2000/svg" xmlns:xlink="http://www.w3.org/1999/xlink" x="0px" y="0px"
	 viewBox="0 0 522.963 98.18" enable-background="new 0 0 522.963 98.18" xml:space="preserve">
<path fill="#FFFFFF" d="M85.375,67.038c0-2.677,0.433-5.198,1.302-7.568c0.867-2.368,2.122-4.432,3.764-6.192
	c1.642-1.758,3.636-3.155,5.983-4.188c2.345-1.032,5.019-1.548,8.022-1.548c1.97,0,3.774,0.177,5.418,0.527
	c1.641,0.354,3.237,0.86,4.785,1.516l-2.183,8.375c-0.984-0.376-2.063-0.704-3.237-0.986c-1.173-0.282-2.487-0.422-3.939-0.422
	c-3.097,0-5.408,0.962-6.932,2.884c-1.525,1.927-2.287,4.459-2.287,7.603c0,3.328,0.715,5.908,2.146,7.741
	c1.43,1.828,3.929,2.741,7.494,2.741c1.267,0,2.627-0.116,4.082-0.35c1.453-0.236,2.79-0.61,4.01-1.128l1.479,8.587
	c-1.22,0.519-2.744,0.962-4.574,1.336c-1.829,0.376-3.848,0.564-6.053,0.564c-3.377,0-6.286-0.506-8.725-1.514
	c-2.441-1.008-4.446-2.381-6.017-4.117c-1.574-1.733-2.721-3.787-3.448-6.157C85.737,72.373,85.375,69.807,85.375,67.038z
	 M133.86,47.542c3.096,0,5.677,0.352,7.742,1.056c2.063,0.702,3.717,1.712,4.96,3.023c1.242,1.317,2.123,2.914,2.639,4.79
	c0.517,1.876,0.775,3.964,0.775,6.262v21.815c-1.502,0.327-3.589,0.715-6.264,1.158c-2.674,0.446-5.911,0.672-9.711,0.672
	c-2.393,0-4.563-0.215-6.51-0.635c-1.947-0.424-3.624-1.115-5.031-2.074c-1.408-0.963-2.487-2.22-3.237-3.768
	c-0.751-1.548-1.126-3.446-1.126-5.698c0-2.158,0.433-3.989,1.302-5.488c0.868-1.502,2.029-2.698,3.483-3.591
	c1.454-0.892,3.119-1.537,4.996-1.935c1.876-0.397,3.823-0.597,5.842-0.597c1.36,0,2.568,0.059,3.624,0.175
	c1.055,0.116,1.911,0.271,2.568,0.457v-0.986c0-1.782-0.539-3.212-1.618-4.292c-1.08-1.078-2.956-1.618-5.631-1.618
	c-1.783,0-3.542,0.129-5.276,0.387c-1.736,0.258-3.237,0.621-4.505,1.091l-1.337-8.447c0.608-0.183,1.372-0.384,2.287-0.597
	c0.915-0.21,1.911-0.398,2.99-0.564c1.079-0.161,2.217-0.301,3.414-0.419C131.434,47.602,132.641,47.542,133.86,47.542z
	 M134.706,78.224c1.03,0,2.017-0.021,2.955-0.07c0.938-0.046,1.688-0.116,2.252-0.209v-7.953c-0.422-0.094-1.057-0.186-1.9-0.282
	c-0.845-0.094-1.619-0.14-2.322-0.14c-0.984,0-1.912,0.059-2.778,0.174c-0.87,0.118-1.632,0.341-2.289,0.669
	c-0.657,0.328-1.173,0.774-1.548,1.338c-0.376,0.562-0.563,1.263-0.563,2.11c0,1.642,0.552,2.779,1.654,3.413
	C131.269,77.907,132.781,78.224,134.706,78.224z M159.124,39.31l10.485-1.69v10.909h12.597v8.727h-12.597v13.019
	c0,2.204,0.388,3.961,1.161,5.278c0.774,1.312,2.333,1.967,4.68,1.967c1.126,0,2.287-0.102,3.482-0.317
	c1.196-0.209,2.287-0.5,3.273-0.878l1.478,8.165c-1.268,0.516-2.673,0.959-4.223,1.336c-1.548,0.376-3.448,0.563-5.7,0.563
	c-2.861,0-5.231-0.387-7.107-1.16c-1.876-0.774-3.377-1.854-4.503-3.239c-1.126-1.384-1.912-3.061-2.358-5.031
	c-0.445-1.97-0.668-4.152-0.668-6.544V39.31z M187.554,67.038c0-2.677,0.434-5.198,1.302-7.568c0.868-2.368,2.122-4.432,3.766-6.192
	c1.641-1.758,3.635-3.155,5.981-4.188c2.345-1.032,5.019-1.548,8.022-1.548c1.97,0,3.774,0.177,5.418,0.527
	c1.641,0.354,3.237,0.86,4.785,1.516l-2.181,8.375c-0.986-0.376-2.065-0.704-3.237-0.986c-1.173-0.282-2.487-0.422-3.941-0.422
	c-3.097,0-5.407,0.962-6.932,2.884c-1.525,1.927-2.287,4.459-2.287,7.603c0,3.328,0.715,5.908,2.146,7.741
	c1.431,1.828,3.929,2.741,7.494,2.741c1.268,0,2.627-0.116,4.082-0.35c1.454-0.236,2.79-0.61,4.011-1.128l1.478,8.587
	c-1.22,0.519-2.744,0.962-4.572,1.336c-1.832,0.376-3.848,0.564-6.053,0.564c-3.379,0-6.288-0.506-8.727-1.514
	c-2.44-1.008-4.445-2.381-6.017-4.117c-1.572-1.733-2.723-3.787-3.448-6.157C187.916,72.373,187.554,69.807,187.554,67.038z
	 M224.499,85.545V32.624l10.485-1.69v17.735c0.704-0.234,1.607-0.457,2.709-0.669c1.103-0.21,2.171-0.317,3.201-0.317
	c3.002,0,5.501,0.414,7.496,1.234c1.992,0.819,3.589,1.98,4.783,3.483c1.197,1.502,2.042,3.284,2.535,5.348
	c0.493,2.067,0.738,4.362,0.738,6.894v20.904h-10.484V65.91c0-3.376-0.435-5.768-1.302-7.176c-0.869-1.408-2.477-2.112-4.821-2.112
	c-0.939,0-1.819,0.081-2.638,0.247c-0.823,0.164-1.561,0.339-2.218,0.527v28.15H224.499z M264.189,67.318
	c0-3.284,0.5-6.157,1.511-8.622c1.01-2.461,2.332-4.515,3.978-6.157c1.639-1.642,3.528-2.884,5.665-3.728
	c2.134-0.844,4.327-1.269,6.579-1.269c5.252,0,9.407,1.607,12.455,4.821c3.047,3.214,4.574,7.939,4.574,14.18
	c0,0.61-0.021,1.279-0.07,2.005c-0.048,0.729-0.097,1.373-0.14,1.935h-23.785c0.23,2.161,1.241,3.87,3.026,5.139
	c1.779,1.263,4.174,1.897,7.176,1.897c1.924,0,3.811-0.172,5.665-0.527c1.852-0.352,3.365-0.785,4.537-1.301l1.408,8.515
	c-0.562,0.282-1.312,0.564-2.252,0.844c-0.938,0.282-1.979,0.529-3.129,0.739c-1.15,0.212-2.381,0.39-3.695,0.529
	s-2.629,0.21-3.942,0.21c-3.33,0-6.228-0.495-8.692-1.479c-2.462-0.983-4.501-2.333-6.122-4.048
	c-1.618-1.709-2.812-3.741-3.585-6.084C264.576,72.569,264.189,70.041,264.189,67.318z M288.818,63.305
	c-0.048-0.89-0.198-1.758-0.457-2.604c-0.258-0.844-0.658-1.591-1.198-2.252c-0.537-0.656-1.221-1.193-2.04-1.618
	c-0.819-0.419-1.841-0.634-3.062-0.634c-1.172,0-2.182,0.202-3.025,0.6c-0.845,0.4-1.549,0.927-2.113,1.583
	c-0.562,0.658-0.994,1.419-1.301,2.29c-0.306,0.865-0.526,1.747-0.666,2.636H288.818z M329.354,57.817
	c-0.941-0.234-2.043-0.481-3.312-0.739c-1.264-0.258-2.626-0.387-4.08-0.387c-0.655,0-1.44,0.059-2.354,0.177
	c-0.919,0.116-1.609,0.248-2.08,0.387v28.29h-10.481V50.499c1.876-0.656,4.091-1.279,6.649-1.865
	c2.556-0.586,5.407-0.879,8.549-0.879c0.562,0,1.242,0.035,2.04,0.104c0.796,0.07,1.597,0.167,2.392,0.28
	c0.799,0.118,1.597,0.261,2.396,0.424c0.798,0.164,1.475,0.366,2.039,0.597L329.354,57.817z"/>
<path fill="#FFFFFF" d="M344.296,82.307c2.626,0,4.795-0.433,6.51-1.304c1.709-0.865,2.566-2.333,2.566-4.396
	c0-0.984-0.153-1.828-0.459-2.532c-0.304-0.705-0.807-1.339-1.511-1.903c-0.704-0.559-1.629-1.102-2.779-1.618
	c-1.15-0.513-2.569-1.126-4.257-1.828c-1.36-0.564-2.652-1.14-3.87-1.726c-1.221-0.585-2.301-1.266-3.241-2.042
	c-0.936-0.771-1.686-1.698-2.25-2.779c-0.562-1.078-0.841-2.392-0.841-3.94c0-2.957,1.109-5.349,3.338-7.176
	c2.228-1.83,5.289-2.747,9.187-2.747c2.483,0,4.536,0.212,6.154,0.634c1.621,0.422,2.758,0.798,3.413,1.126l-1.054,4.083
	c-0.564-0.282-1.51-0.658-2.852-1.129c-1.335-0.467-3.297-0.704-5.875-0.704c-1.032,0-2.008,0.108-2.921,0.32
	c-0.914,0.212-1.726,0.541-2.425,0.986c-0.704,0.446-1.269,1.011-1.693,1.693c-0.422,0.683-0.631,1.516-0.631,2.502
	c0,0.986,0.186,1.835,0.564,2.54c0.373,0.704,0.924,1.328,1.652,1.868c0.726,0.541,1.618,1.046,2.675,1.513
	c1.056,0.465,2.263,0.979,3.625,1.54c1.405,0.562,2.752,1.131,4.042,1.717c1.29,0.581,2.43,1.285,3.414,2.107
	c0.986,0.82,1.784,1.806,2.395,2.954c0.609,1.15,0.916,2.593,0.916,4.33c0,3.284-1.233,5.768-3.695,7.458
	c-2.465,1.69-5.829,2.534-10.098,2.534c-3.192,0-5.633-0.271-7.32-0.809c-1.688-0.54-2.812-0.951-3.376-1.233l1.193-4.15
	c0.143,0.094,0.446,0.245,0.914,0.457c0.473,0.209,1.104,0.446,1.902,0.704c0.798,0.258,1.747,0.481,2.849,0.667
	C341.561,82.213,342.84,82.307,344.296,82.307z M371.247,49.16h14.497v3.87h-14.497v19.354c0,2.067,0.175,3.741,0.527,5.034
	c0.352,1.29,0.854,2.284,1.511,2.988c0.658,0.705,1.456,1.172,2.396,1.408c0.936,0.234,1.968,0.35,3.094,0.35
	c1.922,0,3.47-0.221,4.647-0.666c1.171-0.446,2.085-0.855,2.741-1.231l1.129,3.801c-0.661,0.422-1.807,0.902-3.451,1.44
	c-1.64,0.537-3.424,0.812-5.349,0.812c-2.252,0-4.139-0.296-5.665-0.882c-1.524-0.586-2.741-1.478-3.655-2.674
	c-0.919-1.196-1.564-2.685-1.938-4.47c-0.374-1.779-0.563-3.892-0.563-6.332V38.464l4.574-0.844V49.16z M422.124,84.276
	c-1.36,0.377-3.193,0.799-5.488,1.269c-2.301,0.468-5.114,0.704-8.444,0.704c-2.72,0-4.999-0.402-6.826-1.198
	c-1.828-0.796-3.309-1.925-4.435-3.376c-1.124-1.457-1.936-3.214-2.43-5.278c-0.489-2.064-0.736-4.34-0.736-6.826V49.16h4.574
	v18.932c0,2.58,0.188,4.763,0.564,6.544c0.376,1.782,0.983,3.228,1.827,4.33c0.844,1.102,1.936,1.897,3.273,2.392
	c1.339,0.489,2.968,0.737,4.892,0.737c2.155,0,4.031-0.116,5.628-0.35c1.597-0.236,2.606-0.446,3.026-0.634V49.16h4.574V84.276z
	 M463.147,84.416c-1.357,0.471-3.094,0.917-5.203,1.339c-2.112,0.425-4.789,0.634-8.025,0.634c-2.671,0-5.101-0.435-7.283-1.303
	s-4.059-2.121-5.628-3.766c-1.572-1.64-2.792-3.634-3.66-5.982c-0.868-2.344-1.301-4.994-1.301-7.95
	c0-2.768,0.362-5.311,1.091-7.635c0.726-2.322,1.793-4.327,3.201-6.018c1.408-1.688,3.131-3,5.174-3.94
	c2.042-0.938,4.372-1.408,7.001-1.408c2.392,0,4.47,0.341,6.228,1.021c1.76,0.683,3.036,1.328,3.835,1.935V31.78l4.571-0.847V84.416
	z M458.576,55.777c-0.422-0.328-0.949-0.68-1.583-1.056c-0.635-0.374-1.371-0.729-2.218-1.056c-0.841-0.328-1.76-0.597-2.744-0.809
	c-0.983-0.212-2.018-0.317-3.096-0.317c-2.252,0-4.142,0.4-5.665,1.196c-1.524,0.801-2.758,1.865-3.696,3.204
	c-0.938,1.338-1.617,2.908-2.039,4.714c-0.423,1.806-0.635,3.72-0.635,5.735c0,4.784,1.198,8.458,3.591,11.014
	c2.392,2.559,5.558,3.835,9.498,3.835c2.252,0,4.068-0.104,5.456-0.316c1.381-0.213,2.429-0.433,3.131-0.669V55.777z
	 M480.886,38.184c0,1.081-0.333,1.935-0.986,2.569c-0.658,0.632-1.457,0.949-2.395,0.949c-0.938,0-1.736-0.317-2.392-0.949
	c-0.656-0.634-0.984-1.489-0.984-2.569s0.328-1.935,0.984-2.569c0.655-0.634,1.453-0.951,2.392-0.951
	c0.938,0,1.736,0.317,2.395,0.951C480.553,36.249,480.886,37.104,480.886,38.184z M479.827,85.545h-4.574V49.16h4.574V85.545z
	 M522.963,67.388c0,2.862-0.408,5.467-1.229,7.81c-0.819,2.349-1.97,4.341-3.448,5.983c-1.478,1.645-3.225,2.919-5.243,3.835
	c-2.019,0.917-4.246,1.373-6.684,1.373c-2.44,0-4.669-0.456-6.688-1.373c-2.016-0.916-3.765-2.19-5.24-3.835
	c-1.481-1.642-2.632-3.634-3.451-5.983c-0.819-2.343-1.23-4.948-1.23-7.81c0-2.859,0.411-5.467,1.23-7.81
	c0.819-2.346,1.97-4.354,3.451-6.021c1.476-1.661,3.225-2.951,5.24-3.87c2.019-0.914,4.247-1.371,6.688-1.371
	c2.438,0,4.665,0.457,6.684,1.371c2.019,0.919,3.766,2.209,5.243,3.87c1.479,1.667,2.629,3.674,3.448,6.021
	C522.555,61.921,522.963,64.528,522.963,67.388z M518.109,67.388c0-4.55-1.054-8.176-3.166-10.874
	c-2.112-2.696-4.973-4.045-8.584-4.045c-3.615,0-6.478,1.349-8.587,4.045c-2.11,2.698-3.166,6.324-3.166,10.874
	s1.056,8.165,3.166,10.836c2.109,2.674,4.972,4.012,8.587,4.012c3.611,0,6.472-1.338,8.584-4.012
	C517.056,75.553,518.109,71.938,518.109,67.388z"/>
<path fill="#FFFFFF" d="M51.618,9.913C74.435,20.322,74.72,22.604,74.72,22.604s-0.514,7.136-1.141,15.828
	c-0.626,8.697-1.996,17.682-1.996,17.682s-11.937-6.999-23.101-13.545c-11.165-6.547-22.387-10.836-22.387-10.836
	s0.923,0.446,1.426-13.976c0.501-14.422-1.426-17.752-1.426-17.752S28.805-0.496,51.618,9.913z"/>
<path fill="#FFFFFF" d="M0,36.437c0,0,2.282,5.416,3.708,12.833c1.426,7.415,1.141,11.691,1.141,11.691s7.415,1.143,16.683,2.994
	c9.268,1.854,17.112,4.994,17.112,4.994s0.968-3.257,0.57-9.127c-0.397-5.867-0.57-8.415-0.57-8.415s-7.559-4.276-17.396-8.412
	C11.408,38.861,0,36.437,0,36.437z"/>
<path fill="#FFFFFF" d="M29.232,74.51c0,0,1.141,2.709,1.141,7.415c0,4.703,0,7.131,0,7.131l15.115,9.124
	c0,0,1.568-3.209,2.424-7.985c0.854-4.775,0.999-9.126,0.999-9.126L29.232,74.51z"/>
</svg>
